<svg xmlns="http://www.w3.org/2000/svg" width="145" height="144" viewBox="0 0 145 144">
  <g id="Group_222" data-name="Group 222" transform="translate(-714 -939)">
    <rect id="Rectangle_81" data-name="Rectangle 81" width="145" height="144" rx="16" transform="translate(714 939)" fill="#f19b28"/>
    <path id="Icon_open-cart" data-name="Icon open-cart" d="M4.727.015a6.074,6.074,0,0,0,1.919,12H24.641l1.08,3,4.918,15,4.918,15a4.861,4.861,0,0,0,4.079,3H81.623A4.712,4.712,0,0,0,85.7,45l9.717-29.991c.48-1.56-.24-3-1.919-3H40.236L35.677,3.374A6,6,0,0,0,30.4.015H6.406a6,6,0,0,0-1.08,0,6,6,0,0,0-.72,0ZM42.635,60a6,6,0,1,0,6,6A5.94,5.94,0,0,0,42.635,60Zm35.989,0a6,6,0,1,0,6,6A5.94,5.94,0,0,0,78.624,60Z" transform="translate(732.389 988.507)" fill="#fff"/>
  </g>
</svg>
