<svg xmlns="http://www.w3.org/2000/svg" width="145" height="144" viewBox="0 0 145 144">
  <g id="Group_224" data-name="Group 224" transform="translate(-21 -2204)">
    <g id="Rectangle_95" data-name="Rectangle 95" transform="translate(21 2204)" fill="none" stroke="#f19b28" stroke-width="2">
      <rect width="145" height="144" rx="16" stroke="none"/>
      <rect x="1" y="1" width="143" height="142" rx="15" fill="none"/>
    </g>
    <path id="Icon_material-email" data-name="Icon material-email" d="M80.625,6h-69a8.613,8.613,0,0,0-8.582,8.625L3,66.375A8.65,8.65,0,0,0,11.625,75h69a8.65,8.65,0,0,0,8.625-8.625V14.625A8.65,8.65,0,0,0,80.625,6Zm0,17.25-34.5,23.142L11.625,23.25V14.625l34.5,21.562,34.5-21.562Z" transform="translate(47.375 2235.5)" fill="#f19b28"/>
  </g>
</svg>
