<svg xmlns="http://www.w3.org/2000/svg" width="145" height="144" viewBox="0 0 145 144">
  <g id="Group_223" data-name="Group 223" transform="translate(-21 -1674)">
    <g id="Rectangle_94" data-name="Rectangle 94" transform="translate(21 1674)" fill="none" stroke="#f8932d" stroke-width="2">
      <rect width="145" height="144" rx="16" stroke="none"/>
      <rect x="1" y="1" width="143" height="142" rx="15" fill="none"/>
    </g>
    <path id="Icon_awesome-hamburger" data-name="Icon awesome-hamburger" d="M78,39.906H8.069a8.069,8.069,0,1,0,0,16.138H78a8.069,8.069,0,0,0,0-16.138Zm2.69,21.518H5.379a2.69,2.69,0,0,0-2.69,2.69V66.8A10.759,10.759,0,0,0,13.449,77.562H72.622A10.759,10.759,0,0,0,83.381,66.8v-2.69A2.69,2.69,0,0,0,80.691,61.424ZM9.858,34.527H76.213c5.811,0,9.182-7.38,5.853-12.756C75.312,10.857,60.443,2.267,43.035,2.25,25.63,2.267,10.759,10.857,4,21.769.672,27.145,4.046,34.527,9.858,34.527ZM64.553,15.7a2.69,2.69,0,1,1-2.69,2.69A2.69,2.69,0,0,1,64.553,15.7ZM43.035,10.319a2.69,2.69,0,1,1-2.69,2.69A2.69,2.69,0,0,1,43.035,10.319ZM21.518,15.7a2.69,2.69,0,1,1-2.69,2.69A2.69,2.69,0,0,1,21.518,15.7Z" transform="translate(50.465 1706.094)" fill="#f19b28"/>
  </g>
</svg>
