<svg xmlns="http://www.w3.org/2000/svg" width="38.721" height="38.721" viewBox="0 0 38.721 38.721">
  <path id="Icon_metro-cross" data-name="Icon metro-cross" d="M40.938,33.036h0L29.192,21.288,40.938,9.542h0a1.213,1.213,0,0,0,0-1.711L35.389,2.282a1.213,1.213,0,0,0-1.711,0h0L21.931,14.028,10.185,2.282h0a1.213,1.213,0,0,0-1.711,0L2.924,7.831a1.213,1.213,0,0,0,0,1.711h0L14.671,21.288,2.924,33.035h0a1.213,1.213,0,0,0,0,1.711L8.473,40.3a1.213,1.213,0,0,0,1.711,0h0L21.931,28.549,33.678,40.3h0a1.213,1.213,0,0,0,1.711,0l5.549-5.549a1.213,1.213,0,0,0,0-1.711Z" transform="translate(-2.571 -1.928)" fill="#f8932d"/>
</svg>
