<svg xmlns="http://www.w3.org/2000/svg" width="127.585" height="127.58" viewBox="0 0 127.585 127.58">
  <path id="Path_70" data-name="Path 70" d="M209.393,167.36H128.185A23.213,23.213,0,0,1,105,144.168v-81.2a23.21,23.21,0,0,1,23.184-23.184h63.328a6.947,6.947,0,0,1,0,13.895H128.185a9.3,9.3,0,0,0-9.294,9.289v81.209a9.3,9.3,0,0,0,9.294,9.3h81.209a9.309,9.309,0,0,0,9.3-9.3V81.616a6.945,6.945,0,1,1,13.89,0v62.552a23.219,23.219,0,0,1-23.193,23.193Z" transform="translate(-105.001 -39.781)" fill="#fff"/>
</svg>
